<?xml version="1.0" encoding="utf-8"?>
<!-- Generator: Adobe Illustrator 19.1.0, SVG Export Plug-In . SVG Version: 6.00 Build 0)  -->
<svg version="1.1" id="Layer_1" xmlns="http://www.w3.org/2000/svg" xmlns:xlink="http://www.w3.org/1999/xlink" x="0px" y="0px"
	 viewBox="-181 483.4 477.3 226.1" style="enable-background:new -181 483.4 477.3 226.1;" xml:space="preserve">
<style type="text/css">
	.st0{fill:#FEFEFE;}
</style>
<path class="st0" d="M169.9,596.7c0,6.7,3.6,10.9,9.5,10.9s9.5-4.1,9.5-10.9c0-6.7-3.6-11-9.5-11S169.9,589.9,169.9,596.7z"/>
<path class="st0" d="M-141.7,559.6c8.3,5.8,12.7,14.9,12.7,26.7c4-8.3,12.6-14,23-14c8.1,0,15.2,3.5,19.8,8.9v-7.4h9.8v-13.6h15.8
	v13.6h9.8v7.1c4.5-5.3,11.3-8.6,19.6-8.6c7.8,0,14.2,2.8,18.4,7.9l-2.9-6.4H1.4l7.7,20.1c0.6,1.8,1.7,4.1,2.1,7.1
	c0.5-3,1.6-5.3,2.2-7.1l7.7-20.1h16.7l-3,6.6c4.5-5,11.1-8.1,19.2-8.1c11.7,0,20.1,6.2,23.1,17.1v-15.6h15.1v10.7
	c2.9-7.6,8.6-11,15.6-11c1.1,0,2.6,0.1,4.5,0.3h16.4l6.4,16.4c0.6,1.5,1.5,3.8,2.1,7.2c0.7-3.6,1.6-5.8,2.1-7.2l6.5-16.4H163
	l-3.1,7.1c4.6-5.2,11.5-8.6,19.4-8.6c11.6,0,21,7,24.2,16.8v-15.3h14.7v9.2c4.3-7.5,9.5-10.7,17.4-10.7c5.9,0,10.7,2,13.5,5.5
	c2.2,2.8,3,6.2,3.2,10.4c3.4-9.3,12.1-15.9,23.8-15.9c8.3,0,14.9,3.1,19.2,8.8c-7.4-55.1-54.7-97.7-112-97.7
	c-31.9,0-60.7,13.2-81.3,34.5c-16.7-12.8-37.5-20.3-60.1-20.3c-32.8,0-61.9,16-79.9,40.6c-15.4-16.3-37.3-26.4-61.5-26.4
	c-31.1,0-58.2,16.7-73,41.7C-160.1,553.3-150.3,553.5-141.7,559.6z M276.2,610.7c4.9,0,8.2-1.8,10-5.4l9.5,3.9
	c0.3-3.1,0.6-6.2,0.7-9.4H266C266,606.8,269.7,610.7,276.2,610.7z"/>
<path class="st0" d="M275.6,582.1c-5.2,0-8.4,2.9-9.3,8.6h18.4C284.2,585.4,280.4,582.1,275.6,582.1z M44.2,590.7h18.4
	c-0.6-5.3-4.3-8.6-9.1-8.6C48.4,582.1,45.1,584.9,44.2,590.7L44.2,590.7z M-170.6,568.1v36.4h3c13.7,0,20.3-5.3,20.3-18.2
	c0-13.1-6.7-18.3-20.3-18.3L-170.6,568.1L-170.6,568.1z M-41.1,590.7h18.4c-0.6-5.3-4.3-8.6-9.1-8.6
	C-37,582.1-40.2,584.9-41.1,590.7L-41.1,590.7z"/>
<path class="st0" d="M277.1,621c-12.6,0-21.2-5.9-24.6-14.8v13h-16v-24.3c0-7.1-2.1-10.4-7.5-10.4c-7.2,0-9.6,5.4-9.6,15.7v19.1
	h-15.8v-15.1c-3.2,9.8-12.7,16.8-24.2,16.8c-14.5,0-25.4-11-25.4-24.3c0-0.8,0-1.7,0.1-2.5l-19.7,45.2h-17.9l12.8-27l-17.2-36.2
	l-1.3,12.2c-1.9-0.6-3.7-0.9-5.5-0.9c-7.6,0-12.2,3.9-12.2,13v18.8H77.2v-19.5H43.8c0.1,7.1,3.8,11,10.2,11c4.9,0,8.2-1.8,10-5.4
	l12.1,4.9c-2.9,6.8-10.3,10.9-21.1,10.9c-16.6,0-26.3-10.2-26.3-24c0-1.2,0.1-2.4,0.2-3.6l-11.7,25.8H4.7l-12.3-27.3
	c0.4,2.2,0.6,4.5,0.6,7v0.7h-34.6c0.1,7.1,3.8,11,10.2,11c4.9,0,8.2-1.8,10-5.4l12.1,4.9c-2.9,6.8-10.3,10.9-21.1,10.9
	c-16.6,0-26.3-10.2-26.3-24c0-4.3,1-8.4,2.9-11.9h-6.9v34.1h-15.8v-34.1h-7.1c1.9,3.4,3,7.4,3,11.5c0,13.5-11.1,24.3-25.4,24.3
	c-13.5,0-23.9-9.5-25.2-21.7c-2.1,5.6-5.6,10.2-10.5,13.7c-8.2,5.8-17.3,6.2-28.3,6.2h-11c10,35.8,42.7,62,81.7,62
	c24.2,0,46-10.2,61.5-26.4c18,24.6,47.1,40.6,79.9,40.6c22.6,0,43.4-7.6,60.1-20.3c20.6,21.3,49.3,34.5,81.3,34.5
	c56.1,0,102.7-40.9,111.5-94.5C291,618.8,284.9,621,277.1,621z"/>
<path class="st0" d="M-115.5,596.7c0,6.7,3.6,10.9,9.5,10.9s9.5-4.1,9.5-10.9c0-6.7-3.6-11-9.5-11S-115.5,589.9-115.5,596.7z"/>
</svg>
